# xmcd
#
# Track frame offsets:
# 225
# 12938
# 27989
# 40104
# 59425
# 72518
# 82832
# 94032
# 103128
# 115154
# 131240
# 144455
# 154716
# 164889
# 177956
# 197343
#
# Disc length: 2732 seconds
#
#
# Revision: 1
# Processed by: cddbd v1.5.1PL0 Copyright (c) Steve Scherf et al.
# Submitted via: FreeRIP 2.70 
#
DISCID=db0aa910
DTITLE=Various Artist - Country - The Best of Country 3, 48 everlasting country top hits [CD3)
DYEAR=1996
DGENRE=Country
TTITLE0=Johnny Cash - Ring of fire
TTITLE1=Willie Nelson - Face of a fighter
TTITLE2=Billie Jo Spears - Misty Blue
TTITLE3=John Denver - To the wild country
TTITLE4=George Jones - The old rugged cross
TTITLE5=Johnny Cash - If I were a carpenter
TTITLE6=Brenda Lee - (That's) all you gotta do
TTITLE7=Dave Dudley - Keep on trucking
TTITLE8=Kenny Rogers - Me and Bobby Mc Gee
TTITLE9=Jerry Lee Lewis - Middle aged crazy
TTITLE10=Jack Greene - California turn-around
TTITLE11=Don Gibson - Sea of heartbreak
TTITLE12=Brenda Lee - Good old acapella (soul to soul)
TTITLE13=Ernest Tubb - Do what you do, do well
TTITLE14=John Denver - Potter's wheel
TTITLE15=Willie Nelson - If you've got the money, honey
EXTD=(CD-3)
EXTT0=
EXTT1=
EXTT2=
EXTT3=
EXTT4=
EXTT5=
EXTT6=
EXTT7=
EXTT8=
EXTT9=
EXTT10=
EXTT11=
EXTT12=
EXTT13=
EXTT14=
EXTT15=
PLAYORDER=
